<svg width="65" height="65" viewBox="0 0 65 65" fill="none" xmlns="http://www.w3.org/2000/svg">
<path d="M42.4096 40.6148C42.4096 46.7681 36.6467 46.6259 36.0373 46.6259H24.301V34.7736H36.0373C42.2123 34.7736 42.4096 39.4019 42.4096 40.6148ZM35.1334 30.0045C35.2306 30.0045 40.7106 30.1496 40.7106 24.7363C40.7106 22.4845 40.2013 19.5319 35.1334 19.5319H24.301V30.0045H35.1334V30.0045ZM65 10.8338V54.1662C64.9916 57.0369 63.8475 59.7876 61.8175 61.8175C59.7876 63.8475 57.0369 64.9916 54.1662 65H10.8338C7.9631 64.9916 5.21237 63.8475 3.18245 61.8175C1.15254 59.7876 0.00842082 57.0369 0 54.1662L0 10.8338C0.00842082 7.9631 1.15254 5.21237 3.18245 3.18245C5.21237 1.15254 7.9631 0.00842082 10.8338 0H54.1662C57.0369 0.00842082 59.7876 1.15254 61.8175 3.18245C63.8475 5.21237 64.9916 7.9631 65 10.8338V10.8338ZM49.0474 41.4752C49.0474 38.3456 48.0826 33.018 41.9308 31.7035V31.5975C45.2548 30.1786 47.3484 27.4988 47.3484 23.5248C47.3484 22.5092 47.6386 14.1259 36.0895 14.1259H17.6632V52.0421C36.268 52.0421 37.9568 52.2858 41.3998 51.2136C43.4615 50.5723 49.0474 48.6049 49.0474 41.4752V41.4752Z" fill="#7642C3"/>
</svg>
