<svg width="30" height="66" viewBox="0 0 30 66" fill="none" xmlns="http://www.w3.org/2000/svg">
<path d="M24.7979 49.6558L23.0288 52.779L22.4516 62.9613C22.4516 64.0912 18.9009 65.0054 14.5346 65.0054C10.1683 65.0054 6.6176 64.0912 6.6176 62.9613L5.88989 52.8806L4.02042 49.6558C9.18968 51.8522 19.8293 51.776 24.7979 49.6558V49.6558ZM0.206207 17.4965L1.91257 33.4301C2.65282 30.8909 4.52229 27.4629 6.93127 26.4219C7.72171 26.0791 8.52471 26.0791 9.27751 26.5361C9.92994 26.917 10.482 27.7169 10.5447 28.0343C10.6953 28.8595 10.2938 29.1896 9.98013 29.1896C9.60373 29.1896 9.31515 28.6056 9.12695 28.2628C8.61253 27.336 7.83463 27.2979 7.00655 27.9073C6.14082 28.5421 5.38802 29.6086 4.86105 30.5354C4.22117 31.6527 3.68166 32.8842 3.35544 34.1157C3.16724 34.8267 2.99159 35.9693 3.28016 36.6422C3.40563 36.9215 3.59383 37.0993 3.89495 37.0993C4.52229 37.0993 5.4382 36.2613 5.87734 35.817C6.44194 35.2457 7.16966 34.3569 7.44569 33.7856L8.09812 31.8177C8.42433 30.9544 9.34025 31.1067 9.34025 31.8177C9.34025 33.1127 8.87602 33.5444 8.08557 36.2233C7.35786 38.699 7.13202 39.4989 7.13202 39.4989C7.04419 39.8544 6.70543 40.4511 6.34157 40.4511C6.19101 40.4511 6.07809 40.4003 6.01536 40.2987C5.88989 40.121 5.90243 39.6258 5.91498 39.4989C5.94007 39.0926 6.70543 36.6803 6.83089 36.2994C6.57996 36.5788 6.31648 36.8581 6.0279 37.1374C5.35038 37.7849 4.25881 38.6355 3.33035 38.6355C2.90376 38.6355 2.62773 38.5213 2.36425 38.3308L3.3178 48.4369C3.56874 49.0717 8.23613 50.608 14.384 50.608C20.5445 50.608 25.2119 49.059 25.4503 48.4369L26.8179 36.4264C26.1027 37.0866 25.2746 37.8991 24.3587 38.3054C23.6812 38.5974 22.1756 38.7879 22.1756 37.5817C22.1756 36.9215 23.3173 35.7027 23.9823 34.8521C24.158 34.6362 24.572 34.103 24.572 33.8237C24.572 33.4555 23.8192 33.5444 23.104 34.1411C22.7025 34.4839 22.3261 34.941 22.0125 35.3726C21.473 36.1344 21.1844 36.7946 20.946 37.3405C20.1681 39.1434 20.4316 38.4324 19.8042 40.1337C19.1769 41.8223 19.2773 41.6318 19.1518 41.9111C19.0389 42.1523 18.8758 42.3555 18.6499 42.4824C18.4116 42.6094 18.0853 42.5967 17.8846 42.4444C17.7717 42.3682 17.7215 42.2031 17.7215 41.9746C17.7215 41.8603 17.734 41.7461 17.7591 41.6318C17.9473 40.8573 18.7378 39.3338 19.6411 37.277C19.8419 36.8073 19.7666 36.9469 19.7415 36.985C18.9636 37.7468 18.3739 38.115 17.9348 38.3181C17.2071 38.6482 16.3037 38.6482 16.1155 37.7976C16.1029 37.7468 16.1029 37.696 16.0904 37.6452C14.6099 38.8133 13.0415 39.1307 13.581 36.6168C13.0039 37.6579 12.0002 38.5086 10.7706 38.5086C10.2562 38.5086 9.87976 38.3308 9.69155 37.8611C9.40298 37.1628 9.85466 35.9693 10.2687 34.8394C10.482 34.2681 10.7706 33.5825 11.1595 32.7826C11.3603 32.3509 11.6865 32.097 12.1131 32.2113C12.1884 32.2367 12.2511 32.2621 12.3138 32.3002C12.64 32.5287 12.5146 32.8715 12.3515 33.2143C11.8747 34.1665 11.4606 34.8648 11.1846 35.8551C11.0717 36.274 10.9337 36.9977 11.3728 36.9977C11.6739 36.9977 11.9625 36.8962 12.2385 36.693C12.8157 36.2613 13.2799 35.6138 13.6312 34.979C13.8822 34.522 14.1833 33.9253 14.3339 33.4174C14.3966 33.2016 14.4719 32.9984 14.5597 32.808C14.6977 32.4906 14.8859 32.1605 15.2121 32.1605C15.3752 32.1605 15.5133 32.224 15.6136 32.3509C15.8269 32.6303 15.7767 32.9223 15.6638 33.227C15.4129 33.938 15.0741 34.5728 14.7981 35.3472C14.635 35.7916 14.4593 36.3629 14.4593 36.8327C14.4593 37.2643 14.9236 37.1628 15.3125 36.985C15.6136 36.8454 15.9147 36.6295 16.1657 36.4137C16.3162 35.7916 16.2786 35.9313 19.478 27.7549C19.6411 27.336 19.9423 27.1582 20.2434 27.1582C20.3939 27.1582 20.5194 27.209 20.6449 27.2979C20.8582 27.4629 20.8582 27.8184 20.7703 28.085C20.6825 28.3263 20.6951 28.2501 20.2057 29.4181C19.5533 30.9544 19.1267 32.0589 18.5496 33.4682C18.3112 34.0522 17.5835 35.8678 17.458 36.2994C17.3827 36.5788 17.2949 37.0358 17.5835 37.0358C18.261 37.0358 20.005 35.3726 20.4818 34.8775C20.5069 34.8394 20.5445 34.8267 20.5947 34.8013C20.67 34.5601 20.7452 34.3315 20.808 34.103C20.9836 33.6206 21.1467 33.0619 21.473 32.6683C21.5733 32.5414 21.6863 32.4652 21.8117 32.4652C22.163 32.4652 22.3387 32.6176 22.3387 32.9731C22.3387 33.1127 22.2509 33.6206 22.2007 33.7602C22.3763 33.5698 22.5645 33.3793 22.7653 33.1889C24.6473 31.4241 25.9898 32.3256 25.9898 33.2143C25.9898 34.1538 24.8731 35.4615 24.2583 36.1852C24.0576 36.4264 23.6435 36.8708 23.631 36.9977C23.631 37.1628 23.7439 37.2263 23.907 37.2263C24.158 37.2263 24.71 36.7819 24.9108 36.6295C25.5381 36.1344 26.3913 35.3726 26.9935 34.8394L28.8505 17.4711C25.0237 19.6421 4.05806 19.6548 0.206207 17.4965V17.4965ZM29.0261 16.4173C29.0261 19.0835 0.0180054 19.0835 0.0180054 16.4173C0.0180054 15.3001 6.51723 14.3986 14.5221 14.3986C15.6513 14.3986 16.7554 14.4113 17.8219 14.4494L19.4027 8.2664L27.0939 0.0774027C27.2696 -0.100343 27.8216 0.0520105 28.336 0.521767C28.8505 0.991523 29.1641 1.52476 29.001 1.70251L28.9885 1.7152L21.7992 9.39636L20.5445 14.5637C25.5507 14.8938 29.0261 15.5921 29.0261 16.4173ZM20.3187 17.0013C20.3187 16.8998 20.2057 16.8109 20.005 16.7347L19.9799 16.8363C19.9799 17.0013 19.3526 17.141 18.5872 17.141C17.8219 17.141 17.1945 17.0013 17.1945 16.8363C17.1945 16.8236 17.1945 16.8109 17.2071 16.7982L17.2322 16.7093C17.0063 16.7855 16.8558 16.8871 16.8558 17.0013C16.8558 17.2679 17.6337 17.4711 18.5747 17.4711C19.5408 17.4838 20.3187 17.2679 20.3187 17.0013V17.0013Z" fill="#EB4A4B"/>
</svg>
