<svg width="14" height="25" viewBox="0 0 14 25" fill="none" xmlns="http://www.w3.org/2000/svg">
<path d="M11.7188 0H1.5625C1.14827 0.000542615 0.751153 0.165337 0.458245 0.458245C0.165337 0.751153 0.000542615 1.14827 0 1.5625V22.6562C0.000542615 23.0705 0.165337 23.4676 0.458245 23.7605C0.751153 24.0534 1.14827 24.2182 1.5625 24.2188H11.7188C12.133 24.2182 12.5301 24.0534 12.823 23.7605C13.1159 23.4676 13.2807 23.0705 13.2812 22.6562V1.5625C13.2807 1.14827 13.1159 0.751153 12.823 0.458245C12.5301 0.165337 12.133 0.000542615 11.7188 0ZM8.46875 0.78125L8.24902 1.5625H4.99268L4.79736 0.78125H8.46875ZM12.5 22.6562C12.4997 22.8634 12.4173 23.0619 12.2709 23.2084C12.1244 23.3548 11.9259 23.4372 11.7188 23.4375H1.5625C1.35538 23.4372 1.15683 23.3548 1.01037 23.2084C0.863918 23.0619 0.781521 22.8634 0.78125 22.6562V1.5625C0.781521 1.35538 0.863918 1.15683 1.01037 1.01037C1.15683 0.863918 1.35538 0.781521 1.5625 0.78125H3.9917L4.30859 2.04785C4.32972 2.13236 4.37848 2.20738 4.44713 2.261C4.51579 2.31461 4.60039 2.34374 4.6875 2.34375H8.54492C8.63005 2.34375 8.71285 2.31594 8.78071 2.26455C8.84858 2.21317 8.89781 2.14102 8.9209 2.05908L9.28027 0.78125H11.7188C11.9259 0.781521 12.1244 0.863918 12.2709 1.01037C12.4173 1.15683 12.4997 1.35538 12.5 1.5625V22.6562Z" fill="black"/>
<path d="M4.6875 21.875H1.95312C1.84952 21.875 1.75017 21.9162 1.67691 21.9894C1.60365 22.0627 1.5625 22.162 1.5625 22.2656C1.5625 22.3692 1.60365 22.4686 1.67691 22.5418C1.75017 22.6151 1.84952 22.6562 1.95312 22.6562H4.6875C4.7911 22.6562 4.89046 22.6151 4.96371 22.5418C5.03697 22.4686 5.07812 22.3692 5.07812 22.2656C5.07812 22.162 5.03697 22.0627 4.96371 21.9894C4.89046 21.9162 4.7911 21.875 4.6875 21.875Z" fill="black"/>
<path d="M6.25 21.875H5.85938C5.75577 21.875 5.65642 21.9162 5.58316 21.9894C5.5099 22.0627 5.46875 22.162 5.46875 22.2656C5.46875 22.3692 5.5099 22.4686 5.58316 22.5418C5.65642 22.6151 5.75577 22.6562 5.85938 22.6562H6.25C6.3536 22.6562 6.45296 22.6151 6.52621 22.5418C6.59947 22.4686 6.64062 22.3692 6.64062 22.2656C6.64062 22.162 6.59947 22.0627 6.52621 21.9894C6.45296 21.9162 6.3536 21.875 6.25 21.875Z" fill="black"/>
<path d="M8.0135 9.82129C7.96952 9.7949 7.92076 9.77743 7.87002 9.76988C7.81928 9.76233 7.76755 9.76485 7.71778 9.77729C7.66802 9.78973 7.62119 9.81185 7.57997 9.84239C7.53875 9.87293 7.50396 9.91129 7.47756 9.95528L5.13381 13.8615C5.08051 13.9504 5.06468 14.0567 5.0898 14.1572C5.11493 14.2577 5.17896 14.3442 5.26779 14.3975C5.35663 14.4508 5.463 14.4666 5.56351 14.4415C5.66402 14.4163 5.75043 14.3523 5.80373 14.2635L8.14749 10.3572C8.17388 10.3132 8.19135 10.2645 8.1989 10.2137C8.20645 10.163 8.20393 10.1113 8.19149 10.0615C8.17905 10.0117 8.15693 9.96492 8.12639 9.9237C8.09585 9.88248 8.05749 9.84769 8.0135 9.82129Z" fill="black"/>
<path d="M9.28938 9.91206C9.25731 9.87201 9.21768 9.83866 9.17273 9.81392C9.12778 9.78918 9.0784 9.77354 9.0274 9.76788C8.92441 9.75646 8.8211 9.78643 8.7402 9.85118C8.65931 9.91593 8.60744 10.0102 8.59602 10.1132C8.58461 10.2161 8.61457 10.3194 8.67932 10.4003L10.0465 12.1093L8.67932 13.8183C8.61457 13.8992 8.58461 14.0025 8.59602 14.1055C8.60744 14.2085 8.65931 14.3027 8.7402 14.3675C8.8211 14.4322 8.92441 14.4622 9.0274 14.4508C9.13039 14.4394 9.22462 14.3875 9.28938 14.3066L10.8519 12.3535C10.9073 12.2842 10.9376 12.1981 10.9376 12.1093C10.9376 12.0206 10.9073 11.9345 10.8519 11.8652L9.28938 9.91206Z" fill="black"/>
<path d="M3.99184 14.3066C4.05659 14.3875 4.15082 14.4393 4.25381 14.4508C4.3568 14.4622 4.46011 14.4322 4.54101 14.3675C4.62191 14.3027 4.67377 14.2085 4.68519 14.1055C4.69661 14.0025 4.66664 13.8992 4.60189 13.8183L3.23471 12.1093L4.60189 10.4003C4.63396 10.3603 4.65781 10.3143 4.6721 10.265C4.6864 10.2158 4.69084 10.1641 4.68519 10.1131C4.67953 10.0622 4.66389 10.0128 4.63915 9.96782C4.61441 9.92287 4.58106 9.88324 4.54101 9.85118C4.50095 9.81911 4.45497 9.79526 4.40569 9.78097C4.35642 9.76667 4.30481 9.76223 4.25381 9.76788C4.20282 9.77354 4.15343 9.78918 4.10848 9.81392C4.06353 9.83866 4.0239 9.87201 3.99184 9.91206L2.42934 11.8652C2.37387 11.9345 2.34364 12.0206 2.34364 12.1093C2.34364 12.1981 2.37387 12.2842 2.42934 12.3535L3.99184 14.3066Z" fill="black"/>
</svg>
