<svg width="65" height="65" viewBox="0 0 65 65" fill="none" xmlns="http://www.w3.org/2000/svg">
<path d="M32.5 0.0107422L61.2083 16.2499V48.7391L32.5 64.9782L3.79163 48.7391V16.2499L32.5 0.0107422Z" fill="white"/>
<path d="M56.0842 47.6126L33.4534 60.4284V50.4618L47.5584 42.6943L56.0842 47.6126ZM57.6334 46.2151V19.4351L49.3567 24.2126V41.4376L57.6334 46.2151ZM8.8292 47.6126L31.46 60.4176V50.4509L17.355 42.6943L8.8292 47.6126ZM7.28003 46.2151V19.4351L15.5567 24.2126V41.4376L7.28003 46.2151ZM8.2442 17.7018L31.46 4.57178V14.2134L16.5859 22.3926L16.4667 22.4576L8.2442 17.7018ZM56.6584 17.7018L33.4534 4.57178V14.2134L48.3167 22.4034L48.4359 22.4684L56.6584 17.7018Z" fill="#8ED6FB"/>
<path d="M31.46 48.1866L17.55 40.5275V25.3716L31.46 33.3991V48.1866ZM33.4533 48.1866L47.3633 40.5383V25.3716L33.4533 33.3991V48.1866ZM18.4817 23.6166L32.4567 15.9358L46.4208 23.6166L32.4567 31.6766L18.4817 23.6166Z" fill="#1C78C0"/>
</svg>
