<svg width="65" height="65" fill="none" xmlns="http://www.w3.org/2000/svg"><path d="M42.41 40.615c0 6.153-5.763 6.01-6.373 6.01H24.301v-11.85h11.736c6.175 0 6.373 4.628 6.373 5.84zm-7.277-10.61c.098 0 5.578.145 5.578-5.269 0-2.252-.51-5.204-5.578-5.204H24.301v10.473h10.832zM65 10.834v43.332A10.865 10.865 0 0154.166 65H10.834A10.865 10.865 0 010 54.166V10.834A10.866 10.866 0 0110.834 0h43.332A10.866 10.866 0 0165 10.834zM49.047 41.475c0-3.13-.964-8.457-7.116-9.772v-.105c3.324-1.42 5.417-4.1 5.417-8.073 0-1.016.29-9.4-11.258-9.4H17.663v37.917c18.605 0 20.294.244 23.737-.828 2.062-.642 7.647-2.61 7.647-9.739z" fill="#7642C3"/></svg>