<svg width="30" height="66" fill="none" xmlns="http://www.w3.org/2000/svg"><path d="M24.798 49.656l-1.77 3.123-.576 10.182c0 1.13-3.551 2.044-7.917 2.044-4.367 0-7.917-.914-7.917-2.044l-.728-10.08-1.87-3.225c5.17 2.196 15.81 2.12 20.778 0zM.206 17.496L1.913 33.43c.74-2.54 2.61-5.967 5.018-7.008.79-.343 1.594-.343 2.347.114.652.381 1.204 1.18 1.267 1.498.15.826-.251 1.156-.565 1.156-.376 0-.665-.584-.853-.927-.514-.927-1.292-.965-2.12-.356-.866.635-1.619 1.702-2.146 2.628-.64 1.118-1.18 2.35-1.506 3.58-.188.712-.363 1.854-.075 2.527.126.28.314.457.615.457.627 0 1.543-.838 1.982-1.282.565-.571 1.293-1.46 1.569-2.031l.652-1.968c.326-.864 1.242-.711 1.242 0 0 1.295-.464 1.726-1.254 4.405-.728 2.476-.954 3.276-.954 3.276-.088.355-.427.952-.79.952-.151 0-.264-.05-.327-.152-.125-.178-.113-.673-.1-.8.025-.406.79-2.819.916-3.2-.251.28-.515.56-.803.838-.678.648-1.77 1.498-2.698 1.498-.426 0-.702-.114-.966-.304l.954 10.106c.25.635 4.918 2.171 11.066 2.171 6.16 0 10.828-1.549 11.066-2.171l1.368-12.01c-.715.66-1.543 1.472-2.46 1.878-.677.292-2.182.483-2.182-.723 0-.66 1.141-1.88 1.806-2.73.176-.216.59-.749.59-1.028 0-.368-.753-.28-1.468.317-.401.343-.778.8-1.091 1.232-.54.761-.829 1.422-1.067 1.968-.778 1.802-.514 1.091-1.142 2.793-.627 1.688-.527 1.498-.652 1.777a1.232 1.232 0 01-.502.571c-.238.127-.565.115-.765-.038-.113-.076-.164-.24-.164-.47 0-.114.013-.228.038-.342.188-.775.979-2.298 1.882-4.355.2-.47.126-.33.1-.292-.777.762-1.367 1.13-1.806 1.333-.728.33-1.631.33-1.82-.52-.012-.051-.012-.102-.025-.153-1.48 1.168-3.049 1.486-2.509-1.028-.577 1.04-1.58 1.892-2.81 1.892-.515 0-.891-.178-1.08-.648-.288-.698.164-1.892.578-3.022.213-.57.502-1.256.89-2.056.201-.432.527-.686.954-.572a.935.935 0 01.2.09c.327.228.202.57.038.913-.476.953-.89 1.65-1.166 2.641-.113.419-.251 1.143.188 1.143.3 0 .59-.102.866-.305.577-.432 1.04-1.08 1.392-1.714.251-.457.552-1.054.703-1.562.063-.215.138-.419.226-.609.138-.317.326-.648.652-.648.163 0 .301.064.402.19.213.28.163.572.05.877-.251.711-.59 1.346-.866 2.12-.163.445-.339 1.016-.339 1.486 0 .431.465.33.854.152.3-.14.602-.355.853-.571.15-.622.113-.483 3.312-8.66.163-.418.464-.596.765-.596.15 0 .276.051.402.14.213.165.213.52.125.787-.087.241-.075.165-.564 1.333-.653 1.536-1.08 2.64-1.656 4.05-.239.584-.966 2.4-1.092 2.831-.075.28-.163.737.126.737.677 0 2.421-1.663 2.898-2.159.025-.038.063-.05.113-.076.075-.24.15-.47.213-.698.176-.482.339-1.041.665-1.435.1-.127.213-.203.339-.203.351 0 .527.153.527.508 0 .14-.088.648-.138.787.175-.19.363-.38.564-.571 1.882-1.765 3.225-.863 3.225.025 0 .94-1.117 2.248-1.732 2.971-.2.241-.614.686-.627.813 0 .165.113.228.276.228.251 0 .803-.444 1.004-.596.627-.496 1.48-1.257 2.082-1.79l1.858-17.369c-3.827 2.171-24.793 2.184-28.645.026zm28.82-1.079c0 2.666-29.008 2.666-29.008 0 0-1.117 6.5-2.018 14.504-2.018 1.13 0 2.233.012 3.3.05l1.58-6.183L27.095.077c.176-.177.728-.025 1.242.445.515.47.828 1.003.665 1.18l-.013.013L21.8 9.396l-1.255 5.168c5.007.33 8.482 1.028 8.482 1.853zm-8.707.584c0-.101-.113-.19-.314-.266l-.025.101c0 .165-.627.305-1.393.305-.765 0-1.392-.14-1.392-.305 0-.012 0-.025.012-.038l.025-.089c-.226.076-.376.178-.376.292 0 .267.778.47 1.719.47.966.013 1.744-.203 1.744-.47z" fill="#EB4A4B"/></svg>