<svg width="75" height="60" fill="none" xmlns="http://www.w3.org/2000/svg"><path d="M35.372 44.405c-.035.07-.07.126 0 0zm29.195-10.196c-2.357 0-4.683.54-6.797 1.582-.692-1.394-1.406-2.613-1.524-3.527-.14-1.066-.293-1.7-.128-2.965.164-1.265.902-3.058.89-3.187-.012-.13-.164-.774-1.676-.785-1.511-.012-2.812.292-2.963.691a14.392 14.392 0 00-.621 2.238c-.27 1.371-3.023 6.27-4.581 8.825-.516-.997-.95-1.876-1.043-2.579-.14-1.066-.293-1.699-.13-2.965.165-1.265.903-3.058.892-3.187-.012-.129-.165-.773-1.675-.785-1.51-.012-2.813.293-2.965.691-.152.399-.316 1.336-.621 2.238-.305.903-3.971 9.06-4.931 11.18a57.91 57.91 0 01-1.219 2.532c-.047.093-.082.152-.105.199.035-.059.058-.117.058-.094-.258.504-.41.785-.41.785v.012c-.2.375-.422.715-.527.715-.07 0-.223-.985.035-2.332.55-2.836 1.851-7.243 1.84-7.395-.012-.082.246-.844-.856-1.254-1.066-.386-1.453.258-1.547.258-.093 0-.164.234-.164.234s1.184-4.968-2.272-4.968c-2.156 0-5.156 2.367-6.63 4.511-.926.504-2.93 1.594-5.04 2.754l-2.425 1.336c-.059-.058-.106-.117-.164-.176-4.195-4.476-11.938-7.64-11.61-13.652.117-2.191.879-7.945 14.89-14.93 11.485-5.718 20.667-4.148 22.248-.656 2.273 4.98-4.91 14.25-16.835 15.586-4.546.504-6.936-1.254-7.533-1.91-.621-.691-.715-.727-.95-.598-.386.211-.14.82 0 1.184.352.926 1.817 2.566 4.312 3.387 2.191.714 7.52 1.113 13.965-1.383 7.24-2.79 12.875-10.559 11.223-17.063C45.295 2.146 34.336-.02 23.973 3.66 17.798 5.85 11.121 9.295 6.318 13.784.612 19.127-.302 23.78.074 25.725c1.335 6.902 10.848 11.402 14.655 14.73-.187.106-.363.2-.527.293-1.909.95-9.162 4.747-10.977 8.754-2.05 4.547.34 7.805 1.909 8.25 4.897 1.36 9.912-1.09 12.606-5.109 2.694-4.02 2.367-9.27 1.125-11.66-.012-.035-.035-.059-.047-.094.492-.293.996-.586 1.5-.879a98.35 98.35 0 012.753-1.558c-.469 1.265-.809 2.789-.985 4.992-.21 2.578.856 5.918 2.239 7.23.609.574 1.346.586 1.803.586 1.617 0 2.344-1.336 3.151-2.93.996-1.945 1.875-4.207 1.875-4.207s-1.101 6.118 1.91 6.118c1.1 0 2.202-1.418 2.696-2.145v.012s.023-.047.082-.14c.117-.177.176-.282.176-.282v-.035c.445-.762 1.418-2.508 2.881-5.39 1.899-3.727 3.714-8.38 3.714-8.38a23.43 23.43 0 00.727 3.024c.328 1.113 1.019 2.332 1.57 3.515-.445.61-.715.961-.715.961 0 .01.005.018.012.024-.352.468-.75.972-1.16 1.465-1.5 1.78-3.282 3.82-3.516 4.406-.281.691-.211 1.207.328 1.605.398.305 1.102.352 1.839.293 1.347-.093 2.297-.422 2.754-.633a9.632 9.632 0 002.366-1.242c1.464-1.078 2.355-2.625 2.273-4.664-.047-1.125-.41-2.25-.855-3.304.129-.188.27-.387.398-.587 2.32-3.386 4.112-7.103 4.112-7.103.175 1.022.418 2.032.727 3.023.28.95.83 1.992 1.334 3.012-2.178 1.77-3.526 3.82-3.995 5.168-.867 2.496-.187 3.62 1.09 3.879.575.117 1.395-.153 2.004-.41a9.313 9.313 0 002.53-1.301c1.465-1.078 2.882-2.59 2.788-4.64-.035-.927-.293-1.852-.633-2.743 1.84-.773 4.23-1.195 7.277-.844 6.525.762 7.802 4.84 7.556 6.54-.246 1.698-1.617 2.648-2.074 2.929-.457.281-.598.387-.563.598.059.304.27.293.656.222.54-.093 3.421-1.383 3.55-4.535.188-3.984-3.643-8.367-10.43-8.332l.004.002zM14.272 51.166c-2.155 2.356-5.178 3.247-6.478 2.497-1.394-.811-.844-4.278 1.815-6.788 1.618-1.523 3.702-2.93 5.085-3.797.317-.187.774-.469 1.336-.809.094-.058.14-.081.14-.081.106-.07.223-.13.34-.2.972 3.563.036 6.703-2.238 9.176v.002zm15.746-10.71c-.75 1.84-2.331 6.527-3.292 6.28-.82-.21-1.324-3.784-.164-7.3.586-1.77 1.828-3.879 2.566-4.7 1.183-1.323 2.483-1.745 2.788-1.218.41.691-1.43 5.789-1.898 6.938zm13.007 6.21c-.316.165-.609.27-.75.188-.105-.059.13-.281.13-.281s1.628-1.746 2.273-2.543c.375-.47.808-1.02 1.276-1.63 0 .06.012.118.012.188-.016 2.098-2.03 3.516-2.944 4.078h.003zm10.03-2.285c-.235-.164-.2-.715.585-2.425.305-.669 1.007-1.794 2.227-2.872.138.408.213.835.223 1.266-.012 2.637-1.899 3.621-3.035 4.031z" fill="#C76494"/></svg>