<svg width="65" height="65" fill="none" xmlns="http://www.w3.org/2000/svg"><path d="M32.5.01l28.708 16.24v32.49L32.5 64.977 3.792 48.74V16.25L32.5.012z" fill="#fff"/><path d="M56.084 47.613l-22.63 12.815v-9.966l14.104-7.768 8.526 4.919zm1.55-1.398v-26.78l-8.277 4.778v17.225l8.276 4.777zM8.828 47.613L31.46 60.418V50.45l-14.105-7.757-8.526 4.919zM7.28 46.215v-26.78l8.277 4.778v17.225L7.28 46.215zm.964-28.513L31.46 4.572v9.641l-14.874 8.18-.12.065-8.222-4.756zm48.414 0L33.453 4.572v9.641l14.864 8.19.119.065 8.222-4.766z" fill="#8ED6FB"/><path d="M31.46 48.187l-13.91-7.66V25.373L31.46 33.4v14.788zm1.993 0l13.91-7.649V25.372l-13.91 8.027v14.788zm-14.971-24.57l13.975-7.681 13.964 7.68-13.964 8.06-13.975-8.06z" fill="#1C78C0"/></svg>